# xmcd
#
# Track frame offsets:
#	150
#	9207
#	17395
#	23982
#	29067
#	40445
#	47737
#	54280
#	61060
#	68237
#	75940
#	81125
#	84925
#	90405
#	98147
#	112270
#	116607
#	119872
#	124497
#	130435
#	133102
#	137120
#	144887
#	147957
#	153012
#	157920
#	162147
#
# Disc length: 2340 seconds
#
# Revision: 1
# Processed by: cddbd v1.5.1PL0 Copyright (c) Steve Scherf et al.
# Submitted via: CDex 1.50Beta5
#
DISCID=6309221b
DTITLE=斉藤かおる - どうようNEWえかきうた1
DYEAR=2000
DGENRE=
TTITLE0=斉藤かおる/おはながわらった
TTITLE1=オーケストラ・グレース・ノーツ/くまんばちがとぶ
TTITLE2=あべえみこ/かわいいかくれんぼ
TTITLE3=竹内美奈子/ニイハオ・パンダ
TTITLE4=斉藤かおる/はみがきじょうずかな
TTITLE5=森みゆき/きらきら星
TTITLE6=あべえみこ/おつかいありさん
TTITLE7=あべえみこ/アイアイ
TTITLE8=春口雅子/キリン
TTITLE9=オーケストラ・グレース・ノーツ/クシコスポスト
TTITLE10=江原陽子/こぎつね
TTITLE11=稲村なおこ/アマリリス
TTITLE12=細野高裕/ぴょんぴょんカンガルー
TTITLE13=江原陽子/おんまはみんな
TTITLE14=森みゆき/みんなともだち
TTITLE15=清水玲子/おはながわらった
TTITLE16=清水玲子/かわいいかくれんぼ
TTITLE17=清水玲子/ニイハオ・パンダ
TTITLE18=清水玲子/きらきら星
TTITLE19=清水玲子/おつかいありさん
TTITLE20=清水玲子/アイアイ
TTITLE21=清水玲子/キリン
TTITLE22=清水玲子/こぎつね
TTITLE23=清水玲子/アマリリス
TTITLE24=清水玲子/ぴょんぴょんカンガルー
TTITLE25=清水玲子/おんまはみんな
TTITLE26=清水玲子/みんなともだち
EXTD=
EXTT0=
EXTT1=
EXTT2=
EXTT3=
EXTT4=
EXTT5=
EXTT6=
EXTT7=
EXTT8=
EXTT9=
EXTT10=
EXTT11=
EXTT12=
EXTT13=
EXTT14=
EXTT15=
EXTT16=
EXTT17=
EXTT18=
EXTT19=
EXTT20=
EXTT21=
EXTT22=
EXTT23=
EXTT24=
EXTT25=
EXTT26=
PLAYORDER=
